# xmcd
#
# Track frame offsets:
#	183
#	11405
#	29243
#	50865
#	64980
#	80563
#	92705
#	109345
#	130880
#	146678
#	159403
#	172568
#	185020
#	197475
#	208400
#	218498
#
# Disc length: 3084 seconds
#
# Revision: 1
# Processed by: cddbd v1.5PL3 Copyright (c) Steve Scherf et al.
# Submitted via: MusicWizard 6.0.1
#
DISCID=eb0c0a10
DTITLE=Howlin´ Wolf - Portrait In Blues - Disc 3
DYEAR=1900
DGENRE=Blues
TTITLE0=Leave Here Walking
TTITLE1=The Back Door Wolf
TTITLE2=You Turn Slick On Me
TTITLE3=Watergate Blues
TTITLE4=Can´t Stay Here
TTITLE5=Moving
TTITLE6=Coon On The Moon
TTITLE7=Speak No Woman
TTITLE8=Trying To Forget You
TTITLE9=Stop Using Me
TTITLE10=I´m Leaving You
TTITLE11=Moanin´ For My Baby
TTITLE12=Forty Four
TTITLE13=Somebody In My Home
TTITLE14=All Night Boogie
TTITLE15=No Place To Go
EXTD=
EXTT0=
EXTT1=
EXTT2=
EXTT3=
EXTT4=
EXTT5=
EXTT6=
EXTT7=
EXTT8=
EXTT9=
EXTT10=
EXTT11=
EXTT12=
EXTT13=
EXTT14=
EXTT15=
PLAYORDER=
